<svg width="14" height="15" viewBox="0 0 14 15" fill="none" xmlns="http://www.w3.org/2000/svg">
<path d="M10.8889 4.35714H9.77778C9.77778 2.78 8.53333 1.5 7 1.5C5.46667 1.5 4.22222 2.78 4.22222 4.35714H3.11111C2.5 4.35714 2 4.87143 2 5.5V12.3571C2 12.9857 2.5 13.5 3.11111 13.5H10.8889C11.5 13.5 12 12.9857 12 12.3571V5.5C12 4.87143 11.5 4.35714 10.8889 4.35714ZM7 2.64286C7.92222 2.64286 8.66667 3.40857 8.66667 4.35714H5.33333C5.33333 3.40857 6.07778 2.64286 7 2.64286ZM10.8889 12.3571H3.11111V5.5H10.8889V12.3571ZM7 7.78571C6.07778 7.78571 5.33333 7.02 5.33333 6.07143H4.22222C4.22222 7.64857 5.46667 8.92857 7 8.92857C8.53333 8.92857 9.77778 7.64857 9.77778 6.07143H8.66667C8.66667 7.02 7.92222 7.78571 7 7.78571Z" fill="#252628"/>
</svg>
