<svg width="17" height="11" viewBox="0 0 17 11" fill="none" xmlns="http://www.w3.org/2000/svg">
<path d="M13.4376 7.08301C12.4226 7.08301 11.5968 7.96154 11.5968 9.04141C11.5968 10.1211 12.4226 10.9996 13.4376 10.9996C14.4529 10.9996 15.2785 10.1211 15.2785 9.04141C15.2785 7.96154 14.4527 7.08301 13.4376 7.08301ZM13.4376 9.90127C12.9917 9.90127 12.629 9.51546 12.629 9.04121C12.629 8.56681 12.9917 8.181 13.4376 8.181C13.8836 8.181 14.2462 8.56701 14.2462 9.04121C14.2463 9.51542 13.8836 9.90127 13.4376 9.90127Z" fill="#252628"/>
<path d="M10.7881 0H1.01612C0.731062 0 0.5 0.245815 0.5 0.54911V9.00495C0.5 9.30822 0.731062 9.55403 1.01612 9.55403H2.63334V8.45588H1.53225V1.09819H10.272V9.00495H11.3042V0.54911C11.3043 0.245815 11.0732 0 10.7881 0Z" fill="#252628"/>
<path d="M12.1129 8.45605H5.16241V9.55421H12.1129V8.45605Z" fill="#252628"/>
<path d="M3.88921 7.08301C2.87415 7.08301 2.04834 7.96154 2.04834 9.04141C2.04834 10.1211 2.87415 10.9996 3.88921 10.9996C4.90427 10.9996 5.73008 10.1211 5.73008 9.04141C5.73004 7.96154 4.90427 7.08301 3.88921 7.08301ZM3.88921 9.90127C3.44327 9.90127 3.08062 9.51546 3.08062 9.04121C3.08062 8.56681 3.44327 8.181 3.88921 8.181C4.33514 8.181 4.6978 8.56701 4.6978 9.04121C4.6978 9.51542 4.33496 9.90127 3.88921 9.90127Z" fill="#252628"/>
<path d="M15.9839 4.55762H10.7882V5.65577H15.4678V8.45608H14.728V9.55424H15.9839C16.2689 9.55424 16.5 9.30862 16.5 9.00516V5.10669C16.5 4.80343 16.269 4.55762 15.9839 4.55762Z" fill="#252628"/>
<path d="M14.4233 2.27953C14.3327 2.10419 14.1592 1.99512 13.971 1.99512H10.7882V3.09327H13.6658L14.8434 5.37123L15.748 4.8419L14.4233 2.27953Z" fill="#252628"/>
</svg>
