<svg width="58" height="58" viewBox="0 0 58 58" fill="none" xmlns="http://www.w3.org/2000/svg">
<g filter="url(#filter0_d)">
<path d="M43.9555 31.9989L43.9024 31.818L43.982 31.647C45.058 29.3362 45.6905 26.8022 45.6905 24.0952C45.6905 14.3828 37.8077 6.5 28.0952 6.5C18.3828 6.5 10.5 14.3828 10.5 24.0952C10.5 33.8077 18.3828 41.6905 28.0952 41.6905C30.8022 41.6905 33.3362 41.058 35.647 39.982L35.818 39.9024L35.9989 39.9555L47.2623 43.2623L43.9555 31.9989Z" fill="#F8CB16" stroke="white"/>
<g clip-path="url(#clip0)">
<path d="M35.1632 17.7467C33.258 15.919 30.9131 15 28.1077 15H25.2395V18.6658H28.1077C29.7512 18.6658 31.133 19.2337 32.2321 20.3592C33.3313 21.4848 33.886 22.8685 33.886 24.5C33.886 26.1315 33.3208 27.5152 32.1902 28.6408C31.6657 29.1864 31.032 29.6187 30.3292 29.9102C29.6265 30.2018 28.87 30.3461 28.1077 30.3342H25.2395V34H28.1077C30.9131 34 33.258 33.081 35.1632 31.2429C37.0683 29.4049 38.0104 27.1538 38.0104 24.5C38.0104 21.8462 37.0579 19.5848 35.1632 17.7467Z" fill="white"/>
<path d="M23.0203 23.2193C24.1361 23.2193 25.0406 22.327 25.0406 21.2263C25.0406 20.1257 24.1361 19.2334 23.0203 19.2334C21.9045 19.2334 21 20.1257 21 21.2263C21 22.327 21.9045 23.2193 23.0203 23.2193Z" fill="#252628"/>
<path d="M23.0203 29.7661C24.1361 29.7661 25.0406 28.8739 25.0406 27.7732C25.0406 26.6725 24.1361 25.7803 23.0203 25.7803C21.9045 25.7803 21 26.6725 21 27.7732C21 28.8739 21.9045 29.7661 23.0203 29.7661Z" fill="#252628"/>
</g>
</g>
<defs>
<filter id="filter0_d" x="0" y="0" width="58" height="58" filterUnits="userSpaceOnUse" color-interpolation-filters="sRGB">
<feFlood flood-opacity="0" result="BackgroundImageFix"/>
<feColorMatrix in="SourceAlpha" type="matrix" values="0 0 0 0 0 0 0 0 0 0 0 0 0 0 0 0 0 0 127 0" result="hardAlpha"/>
<feOffset dy="4"/>
<feGaussianBlur stdDeviation="5"/>
<feColorMatrix type="matrix" values="0 0 0 0 0 0 0 0 0 0 0 0 0 0 0 0 0 0 0.15 0"/>
<feBlend mode="normal" in2="BackgroundImageFix" result="effect1_dropShadow"/>
<feBlend mode="normal" in="SourceGraphic" in2="effect1_dropShadow" result="shape"/>
</filter>
<clipPath id="clip0">
<rect width="17" height="19" fill="white" transform="translate(21 15)"/>
</clipPath>
</defs>
</svg>
