<svg width="21" height="21" viewBox="0 0 21 21" fill="none" xmlns="http://www.w3.org/2000/svg">
<path d="M2.5592 14.124L2.61698 13.9442L2.54131 13.7708C2.00372 12.5395 1.70413 11.1998 1.73908 9.77964C1.86458 4.67999 6.11433 0.649436 11.227 0.785429C16.3396 0.921422 20.3855 5.17264 20.26 10.2723C20.1345 15.3719 15.8848 19.4025 10.7721 19.2665C9.34857 19.2286 8.02279 18.8614 6.81771 18.2625L6.64905 18.1786L6.4672 18.2267L0.755525 19.7374L2.5592 14.124Z" fill="#F8CB16" stroke="white"/>
<g style="mix-blend-mode:darken">
<path d="M14.7424 11.3774C14.0277 11.3774 13.4463 11.9302 13.4463 12.6096C13.4463 13.2889 14.0277 13.8417 14.7424 13.8417C15.4573 13.8417 16.0386 13.2889 16.0386 12.6096C16.0386 11.9302 15.4571 11.3774 14.7424 11.3774ZM14.7424 13.1506C14.4284 13.1506 14.1731 12.9079 14.1731 12.6095C14.1731 12.311 14.4284 12.0683 14.7424 12.0683C15.0564 12.0683 15.3118 12.3111 15.3118 12.6095C15.3118 12.9079 15.0564 13.1506 14.7424 13.1506Z" fill="#252628"/>
<path d="M12.8767 6.9209H5.99622C5.7955 6.9209 5.63281 7.07556 5.63281 7.26638V12.5866C5.63281 12.7774 5.7955 12.9321 5.99622 12.9321H7.1349V12.2411H6.35962V7.61185H12.5133V12.5866H13.2401V7.26638C13.2402 7.07556 13.0775 6.9209 12.8767 6.9209Z" fill="#252628"/>
<path d="M13.8099 12.2412H8.91602V12.9321H13.8099V12.2412Z" fill="#252628"/>
<path d="M8.01882 11.3774C7.30411 11.3774 6.72266 11.9302 6.72266 12.6096C6.72266 13.2889 7.30411 13.8417 8.01882 13.8417C8.73353 13.8417 9.31499 13.2889 9.31499 12.6096C9.31496 11.9302 8.73353 11.3774 8.01882 11.3774ZM8.01882 13.1506C7.70484 13.1506 7.44949 12.9079 7.44949 12.6095C7.44949 12.311 7.70484 12.0683 8.01882 12.0683C8.33281 12.0683 8.58815 12.3111 8.58815 12.6095C8.58815 12.9079 8.33267 13.1506 8.01882 13.1506Z" fill="#252628"/>
<path d="M16.5353 9.78809H12.877V10.479H16.1718V12.2409H15.651V12.9318H16.5352C16.736 12.9318 16.8987 12.7773 16.8987 12.5864V10.1336C16.8987 9.94275 16.736 9.78809 16.5353 9.78809Z" fill="#252628"/>
<path d="M15.4365 8.35521C15.3726 8.2449 15.2505 8.17627 15.118 8.17627H12.877V8.8672H14.9031L15.7322 10.3004L16.3692 9.96739L15.4365 8.35521Z" fill="#252628"/>
</g>
</svg>
