<svg width="20" height="20" viewBox="0 0 20 20" fill="none" xmlns="http://www.w3.org/2000/svg">
<path d="M9.25366 13.015L9.25366 10.0001" stroke="#333333" stroke-width="1.5" stroke-linecap="round" stroke-linejoin="round"/>
<path d="M9.25366 6.98523L9.24487 6.98523" stroke="#333333" stroke-width="1.5" stroke-linecap="round" stroke-linejoin="round"/>
<path d="M2.55291 11.2357C2.79124 12.3151 3.28116 13.3228 3.98275 14.177C4.81734 15.2019 5.9208 15.9742 7.16951 16.4074C8.41823 16.8406 9.7629 16.9176 11.0529 16.6297C12.1322 16.3914 13.14 15.9015 13.9942 15.1999L18.9999 15.7113L16.4056 11.3999C16.6767 10.3283 16.6908 9.20781 16.4469 8.12972C16.158 6.83994 15.5158 5.65606 14.5921 4.71067C13.6684 3.76528 12.4998 3.09573 11.2171 2.77701C10.1455 2.50591 9.02499 2.49177 7.9469 2.73572L7.53826 2.82708C5.85574 3.30188 4.40748 4.3806 3.47077 5.8567C2.53406 7.33279 2.17472 9.10253 2.46156 10.8271L2.55291 11.2357Z" stroke="#333333" stroke-width="1.5" stroke-linecap="round" stroke-linejoin="round"/>
</svg>
