<svg width="20" height="21" viewBox="0 0 20 21" fill="none" xmlns="http://www.w3.org/2000/svg">
<path d="M10.0254 10.5C9.12817 10.5 8.39406 9.78 8.39406 8.9C8.39406 8.02 9.12817 7.3 10.0254 7.3C10.9227 7.3 11.6568 8.02 11.6568 8.9C11.6568 9.78 10.9227 10.5 10.0254 10.5ZM14.9195 9.06C14.9195 6.156 12.758 4.1 10.0254 4.1C7.29288 4.1 5.13131 6.156 5.13131 9.06C5.13131 10.932 6.7219 13.412 10.0254 16.372C13.329 13.412 14.9195 10.932 14.9195 9.06ZM10.0254 2.5C13.4513 2.5 16.5509 5.076 16.5509 9.06C16.5509 11.716 14.373 14.86 10.0254 18.5C5.67782 14.86 3.49994 11.716 3.49994 9.06C3.49994 5.076 6.59955 2.5 10.0254 2.5Z" fill="#323232"/>
</svg>
