<svg width="22" height="22" viewBox="0 0 22 22" fill="none" xmlns="http://www.w3.org/2000/svg">
<path fill-rule="evenodd" clip-rule="evenodd" d="M9.14842 4.57812C6.62431 4.57812 4.57812 6.62431 4.57812 9.14842C4.57812 11.6725 6.62431 13.7187 9.14842 13.7187C11.6725 13.7187 13.7187 11.6725 13.7187 9.14842C13.7187 6.62431 11.6725 4.57812 9.14842 4.57812ZM2.75 9.14842C2.75 5.61467 5.61467 2.75 9.14842 2.75C12.6822 2.75 15.5468 5.61467 15.5468 9.14842C15.5468 12.6822 12.6822 15.5468 9.14842 15.5468C5.61467 15.5468 2.75 12.6822 2.75 9.14842Z" fill="#252628"/>
<path fill-rule="evenodd" clip-rule="evenodd" d="M12.1403 13.433L17.9573 19.25L19.25 17.9574L13.433 12.1403L12.1403 13.433Z" fill="#252628"/>
</svg>
