<?xml version="1.0" standalone="no"?>
<!DOCTYPE svg PUBLIC "-//W3C//DTD SVG 20010904//EN"
		"http://www.w3.org/TR/2001/REC-SVG-20010904/DTD/svg10.dtd">
<svg version="1.0" xmlns="http://www.w3.org/2000/svg"
	 width="20.000000pt" height="20.000000pt" viewBox="0 0 1200.000000 1200.000000"
	 preserveAspectRatio="xMidYMid meet">

	<g transform="translate(0.000000,1200.000000) scale(0.100000,-0.100000)"
	   fill="#000000" stroke="none">
		<path d="M3175 10055 c-305 -54 -577 -200 -788 -425 -227 -241 -356 -547 -373
-887 -35 -685 427 -1284 1106 -1434 138 -31 415 -34 553 -6 375 76 694 291
904 609 107 163 179 347 209 541 20 126 14 403 -11 517 -91 411 -360 762 -729
950 -102 51 -236 99 -351 125 -100 23 -415 29 -520 10z"/>
		<path d="M8430 10065 c-8 -2 -49 -9 -90 -15 -109 -18 -272 -73 -384 -130 -359
-182 -614 -502 -718 -900 -27 -101 -31 -137 -35 -291 -6 -207 8 -322 62 -486
119 -370 378 -662 736 -832 337 -160 753 -174 1101 -35 453 179 769 563 865
1049 24 123 24 386 0 508 -99 500 -449 905 -922 1065 -153 52 -225 63 -420 67
-99 2 -187 2 -195 0z"/>
		<path d="M2432 6918 c-439 -55 -807 -328 -1105 -821 -139 -228 -288 -567 -499
-1132 -135 -361 -336 -1158 -487 -1927 -60 -305 -55 -411 26 -577 74 -152 234
-270 418 -307 183 -37 383 20 522 149 73 68 122 138 153 218 11 28 45 169 75
313 110 537 241 1086 331 1394 38 132 68 220 162 472 l17 45 3 -85 c1 -47 13
-569 26 -1160 26 -1186 22 -1128 93 -1263 71 -135 215 -247 364 -282 96 -22
1682 -22 1778 0 149 35 293 147 364 282 72 137 66 35 97 1663 16 811 29 1555
30 1652 l0 178 501 2 501 3 29 70 c55 128 177 368 248 489 128 214 237 361
397 534 l95 102 -2033 -1 c-1161 -1 -2064 -6 -2106 -11z"/>
		<path d="M7660 6923 c-210 -22 -444 -110 -618 -233 -40 -28 -121 -97 -179
-153 -214 -206 -402 -498 -570 -887 -94 -217 -334 -851 -384 -1018 -139 -457
-429 -1736 -429 -1887 1 -273 184 -513 441 -580 81 -21 234 -21 313 0 132 35
268 130 340 239 54 82 73 141 122 380 109 535 242 1098 334 1421 46 157 100
316 169 490 l20 50 1 -40 c0 -22 11 -542 25 -1155 26 -1210 24 -1170 85 -1295
72 -148 215 -263 372 -300 95 -22 1682 -22 1777 0 223 53 393 240 427 468 10
64 20 401 34 1117 11 564 21 1068 21 1120 l0 95 25 -70 c13 -38 44 -119 69
-180 97 -241 247 -834 415 -1636 73 -348 90 -399 167 -501 143 -187 420 -271
656 -198 189 59 341 223 392 425 29 115 21 203 -50 541 -144 678 -263 1173
-363 1504 -47 155 -161 463 -319 865 -348 881 -806 1341 -1413 1415 -78 9
-1792 12 -1880 3z"/>
	</g>
</svg>
