<svg width="17" height="17" viewBox="0 0 17 17" fill="none" xmlns="http://www.w3.org/2000/svg">
<path d="M8.49996 1.4165C4.60413 1.4165 1.41663 4.604 1.41663 8.49984C1.41663 12.3957 4.60413 15.5832 8.49996 15.5832C12.3958 15.5832 15.5833 12.3957 15.5833 8.49984C15.5833 4.604 12.3958 1.4165 8.49996 1.4165ZM8.49996 14.1665C5.37621 14.1665 2.83329 11.6236 2.83329 8.49984C2.83329 5.37609 5.37621 2.83317 8.49996 2.83317C11.6237 2.83317 14.1666 5.37609 14.1666 8.49984C14.1666 11.6236 11.6237 14.1665 8.49996 14.1665ZM8.85413 4.95817H7.79163V9.20817L11.475 11.4748L12.0416 10.554L8.85413 8.6415V4.95817Z" fill="#252628"/>
</svg>
