<svg width="246" height="369" viewBox="0 0 246 369" fill="none" xmlns="http://www.w3.org/2000/svg">
<path d="M144.617 0.761222C170.986 5.34763 211.334 30.9379 222.471 53.8479C233.609 76.7579 232.096 104.594 218.654 126.575C211.733 138.09 201.476 148.633 200.488 161.767C199.147 179.381 214.915 193.131 225.878 207.37C257.84 248.97 249.541 313.465 207.797 347.625C185.004 366.214 150.838 375.455 124.334 362.598C102.512 351.991 90.2826 329.294 69.5988 316.955C47.0802 303.489 17.8264 304.349 -8.7063 309.075C-35.239 313.8 -61.4252 321.924 -88.3776 321.54C-115.33 321.155 -144.315 309.763 -154.582 286.461C-166.076 260.052 -149.945 229.715 -153.661 201.199C-156.535 178.962 -171.201 160.15 -184.234 141.474C-197.267 122.799 -209.363 101.401 -206.168 79.1516C-202.972 56.9022 -180.027 33.8522 -146.181 30.4023" fill="#FEFAE8"/>
</svg>
